<svg width="25" height="25" viewBox="0 0 25 25" fill="none" xmlns="http://www.w3.org/2000/svg">
<path d="M20.7008 18.6095C20.9724 18.2801 21.2214 17.8988 21.4703 17.5001L22.3303 16.1655C22.5566 15.8188 22.5566 15.2642 22.3303 14.9175L21.4703 13.5829C17.9964 8.22699 13.1306 6.32035 8.66083 7.91499H8.64954" stroke="#3C4328" stroke-miterlimit="10" stroke-linecap="round" stroke-linejoin="round"/>
<path d="M2.79921 12.5082C2.52763 12.8376 2.2787 13.2189 2.02975 13.6175L1.16974 14.9522C0.943421 15.2988 0.943421 15.8535 1.16974 16.2002L2.02975 17.5348C5.5037 22.8907 10.3695 24.7973 14.8392 23.2027H14.8505" stroke="#3C4328" stroke-miterlimit="10" stroke-linecap="round" stroke-linejoin="round"/>
<path d="M11.1389 19.8921C10.5392 19.7014 10.0074 19.2161 9.61133 18.5401" stroke="#3C4328" stroke-miterlimit="10" stroke-linecap="round" stroke-linejoin="round"/>
<path d="M13.9 12.5776C13.5039 11.9016 12.9721 11.4163 12.3723 11.2256" stroke="#3C4328" stroke-miterlimit="10" stroke-linecap="round" stroke-linejoin="round"/>
<path d="M2.24475 7.13501L21.2666 24" stroke="#3C4328" stroke-miterlimit="10" stroke-linecap="round"/>
</svg>
