<svg width="34" height="30" viewBox="0 0 34 30" fill="none" xmlns="http://www.w3.org/2000/svg">
<path d="M14.875 18.0484H19.125C19.5216 18.0484 19.8333 18.3234 19.8333 18.6734V24.9234C19.8333 25.2734 19.5216 25.5484 19.125 25.5484H14.875C14.4783 25.5484 14.1666 25.2734 14.1666 24.9234V18.6734C14.1666 18.3234 14.4783 18.0484 14.875 18.0484Z" stroke="#3C4328" stroke-miterlimit="10" stroke-linecap="round" stroke-linejoin="round"/>
<path d="M11.3333 25.5484H8.49996C8.10329 25.5484 7.79163 25.2734 7.79163 24.9234V13.0484H3.54163L16.575 4.57344C16.83 4.41094 17.17 4.41094 17.4108 4.57344L30.4583 13.0484H26.2083V24.9234C26.2083 25.2734 25.8825 25.5484 25.5 25.5484H22.6666" stroke="#3C4328" stroke-miterlimit="10" stroke-linecap="round" stroke-linejoin="round"/>
</svg>
