<svg width="130" height="50" viewBox="0 0 130 50" fill="none" xmlns="http://www.w3.org/2000/svg">
<circle cx="25" cy="25" r="24.5" stroke="#E5E3DA"/>
<circle cx="105" cy="25" r="24.5" fill="#ED553B" stroke="#ED553B"/>
<path d="M20.6218 19.2856L15 24.9999L20.6218 30.7142L21.798 29.4912L18.2166 25.8504H35V24.1495H18.2158L21.798 20.5086L20.6218 19.2856Z" fill="#8C8C8C"/>
<path d="M109.737 18.9351L109.376 18.5687L109.02 18.9389L107.842 20.1627L107.504 20.5134L107.846 20.8602L110.592 23.6495H95H94.5V24.1495V25.8504V26.3504H95H110.592L107.847 29.1406L107.505 29.4874L107.843 29.838L109.02 31.061L109.376 31.4312L109.737 31.0648L115.356 25.3505L115.701 24.9999L115.356 24.6493L109.737 18.9351Z" fill="white" stroke="white"/>
</svg>
