<svg width="39" height="39" viewBox="0 0 39 39" fill="none" xmlns="http://www.w3.org/2000/svg">
<rect width="39" height="39" rx="19.5" fill="#F1F1F1"/>
<path d="M30.3149 20.1798C30.3149 19.3765 30.2372 18.5473 30.1076 17.7699H18.887V22.3566H25.3136C25.0544 23.8337 24.1993 25.1294 22.9295 25.9586L26.7647 28.9387C29.0192 26.8397 30.3149 23.7819 30.3149 20.1798Z" fill="#4280EF"/>
<path d="M18.889 31.7892C22.1024 31.7892 24.7974 30.7267 26.7668 28.9127L22.9316 25.9586C21.8691 26.6842 20.4957 27.0988 18.889 27.0988C15.7794 27.0988 13.1621 24.9998 12.2033 22.2011L8.2644 25.233C10.2857 29.2496 14.3801 31.7892 18.889 31.7892Z" fill="#34A353"/>
<path d="M12.2022 22.1752C11.7098 20.6981 11.7098 19.0915 12.2022 17.6144L8.2633 14.5566C6.5789 17.9254 6.5789 21.8902 8.2633 25.233L12.2022 22.1752Z" fill="#F6B704"/>
<path d="M18.889 12.7168C20.5734 12.6908 22.2319 13.3387 23.4499 14.5048L26.8446 11.0842C24.6937 9.06292 21.8432 7.97454 18.889 8.00045C14.3801 8.00045 10.2857 10.54 8.2644 14.5566L12.2033 17.6145C13.1621 14.7899 15.7794 12.7168 18.889 12.7168Z" fill="#E54335"/>
</svg>
